<svg width="95" height="18" viewBox="0 0 95 18" fill="none" xmlns="http://www.w3.org/2000/svg">
  <path d="M2.947 4.026 6.385 1.95a3.125 3.125 0 0 1 3.23 0l3.438 2.076a3.125 3.125 0 0 1 1.51 2.675v4.609c0 1.096-.574 2.113-1.514 2.678l-3.435 2.066a3.125 3.125 0 0 1-3.226-.003l-3.44-2.077a3.125 3.125 0 0 1-1.51-2.675V6.701c0-1.095.572-2.109 1.509-2.675Z" stroke="black" stroke-width="1.875" stroke-linejoin="bevel"/>
  <path d="M12.688 9A4.688 4.688 0 1 0 3.312 9a4.688 4.688 0 0 0 9.376 0Z" fill="black"/>
  <text x="21" y="13.5" fill="#09090B" font-family="Arial, Helvetica, sans-serif" font-size="12" font-weight="700" letter-spacing="0">ASKNEXUM</text>
</svg>
